<svg width="103" height="115" viewBox="0 0 103 115" fill="none" xmlns="http://www.w3.org/2000/svg">
<path fill-rule="evenodd" clip-rule="evenodd" d="M88.8305 37.5858L96.1759 82.0905L91.9078 82.7949L84.5623 38.2903L88.8305 37.5858Z" fill="white"/>
<path fill-rule="evenodd" clip-rule="evenodd" d="M35.6076 27.5547L36.64 28.3861L43.1743 41.547L39.2997 43.4707L33.5756 31.9419L32.5512 30.5212L35.6076 27.5547Z" fill="white"/>
<path d="M40.8592 60.3933C40.8592 60.3933 44.7275 57.6594 49.4993 57.6594C54.271 57.6594 58.1393 60.3933 58.1393 60.3933C58.1393 60.3933 54.271 63.1273 49.4993 63.1273C44.7275 63.1273 40.8592 60.3933 40.8592 60.3933Z" fill="white"/>
<path fill-rule="evenodd" clip-rule="evenodd" d="M58.1393 60.3933L59.6998 58.1854L62.8238 60.3933L59.6998 62.6012L58.1393 60.3933ZM40.8592 60.3933L39.2987 58.1854L36.1747 60.3933L39.2987 62.6012L40.8592 60.3933ZM50.2781 60.3933C50.0211 60.3736 49.7612 60.3631 49.4993 60.3631C49.2373 60.3631 48.9774 60.3736 48.7204 60.3933C48.9774 60.413 49.2373 60.4235 49.4993 60.4235C49.7612 60.4235 50.0211 60.413 50.2781 60.3933ZM42.4104 58.1789C42.4103 58.1788 42.4104 58.1788 42.4104 58.1789ZM56.6917 64.2376C54.9225 65.011 52.382 65.831 49.4993 65.831C46.6165 65.831 44.0761 65.011 42.3069 64.2376C41.4114 63.8462 40.6834 63.4534 40.1708 63.153C39.9138 63.0023 39.7089 62.8736 39.562 62.7782C39.4885 62.7304 39.4293 62.6909 39.3853 62.661C39.3632 62.646 39.3449 62.6334 39.3305 62.6234L39.3117 62.6104L39.3045 62.6053L39.3 62.6022C39.2994 62.6017 39.2987 62.6012 40.8592 60.3933C39.2987 58.1854 39.2994 58.1849 39.3 58.1845L39.3045 58.1813L39.3117 58.1763L39.3305 58.1632C39.3449 58.1532 39.3632 58.1406 39.3853 58.1256C39.4293 58.0957 39.4885 58.0562 39.562 58.0084C39.7089 57.913 39.9138 57.7843 40.1708 57.6337C40.6834 57.3332 41.4114 56.9404 42.3069 56.549C44.0761 55.7756 46.6165 54.9557 49.4993 54.9557C52.382 54.9557 54.9225 55.7756 56.6917 56.549C57.5871 56.9404 58.3151 57.3332 58.8277 57.6337C59.0847 57.7843 59.2896 57.913 59.4365 58.0084C59.51 58.0562 59.5692 58.0957 59.6133 58.1256C59.6353 58.1406 59.6536 58.1532 59.668 58.1632L59.6868 58.1763L59.694 58.1813L59.6985 58.1845C59.6991 58.1849 59.6998 58.1854 58.1393 60.3933C59.6998 62.6012 59.6991 62.6017 59.6985 62.6022L59.694 62.6053L59.6868 62.6104L59.668 62.6234C59.6536 62.6334 59.6353 62.646 59.6133 62.661C59.5692 62.6909 59.51 62.7304 59.4365 62.7782C59.2896 62.8736 59.0847 63.0023 58.8277 63.153C58.3151 63.4534 57.5871 63.8462 56.6917 64.2376Z" fill="white"/>
<path fill-rule="evenodd" clip-rule="evenodd" d="M42.4978 83.1179C42.6774 80.5285 44.5846 78.2218 47.4782 75.9061L50.857 80.128C48.1178 82.3201 47.902 83.3514 47.8922 83.492C47.8922 83.4924 47.8922 83.4928 47.8921 83.4934C47.8895 83.5199 47.8621 83.7971 48.9231 84.8448C49.0496 84.9698 49.2162 85.129 49.4019 85.3064C49.7792 85.6669 50.2352 86.1025 50.5935 86.4789C51.1904 87.1061 51.8681 87.9113 52.3542 88.9087C52.8624 89.9515 53.1438 91.1691 52.9839 92.5428C52.8281 93.8807 52.2751 95.1844 51.4134 96.4697C50.5818 97.71 48.9023 98.0413 47.662 97.2098C46.4218 96.3783 46.0904 94.6988 46.9219 93.4585C47.4471 92.6752 47.5822 92.1796 47.6127 91.9173C47.6391 91.6907 47.6052 91.5072 47.4933 91.2778C47.3593 91.0028 47.1121 90.6646 46.6766 90.207C46.3854 89.9011 46.1319 89.6603 45.8381 89.3814C45.6295 89.1833 45.4006 88.966 45.1235 88.6923C44.1045 87.686 42.3096 85.8309 42.4978 83.1179Z" fill="white"/>
<path fill-rule="evenodd" clip-rule="evenodd" d="M56.6257 83.9432C54.8807 82.0217 54.5354 79.0486 54.8661 75.3572L60.2519 75.8397C59.9389 79.3341 60.534 80.2036 60.6288 80.3079C60.629 80.3082 60.6293 80.3085 60.6297 80.3089C60.647 80.3292 60.8282 80.5407 62.3187 80.4999C62.4965 80.495 62.7267 80.4849 62.9833 80.4736C63.5046 80.4507 64.1346 80.423 64.6543 80.4249C65.5201 80.428 66.5703 80.496 67.6267 80.8353C68.7312 81.19 69.8049 81.8295 70.6859 82.8955C71.5439 83.9339 72.1023 85.2352 72.4339 86.7467C72.7538 88.2053 71.8308 89.647 70.3722 89.9669C68.9137 90.2868 67.4719 89.3638 67.152 87.9053C66.95 86.9841 66.6857 86.5436 66.5175 86.34C66.3722 86.1642 66.2162 86.0617 65.9732 85.9837C65.682 85.8902 65.2667 85.8345 64.635 85.8323C64.2127 85.8308 63.8634 85.8472 63.4588 85.8663C63.1714 85.8798 62.8561 85.8946 62.4668 85.9053C61.0352 85.9445 58.4539 85.9565 56.6257 83.9432Z" fill="white"/>
<path fill-rule="evenodd" clip-rule="evenodd" d="M72.3326 72.7029C69.7545 72.4024 67.5395 70.3893 65.3616 67.3906L69.7369 64.213C71.7986 67.0517 72.8187 67.3155 72.9587 67.3318C72.959 67.3318 72.9594 67.3319 72.96 67.332C72.9864 67.3359 73.262 67.3761 74.3582 66.3653C74.4889 66.2448 74.6557 66.0858 74.8416 65.9086C75.2194 65.5486 75.6759 65.1135 76.0686 64.7732C76.723 64.2062 77.559 63.567 78.578 63.1281C79.6435 62.6692 80.8729 62.445 82.2376 62.669C83.5668 62.8872 84.8432 63.5006 86.0868 64.4215C87.2868 65.3101 87.5393 67.0033 86.6507 68.2033C85.762 69.4033 84.0689 69.6558 82.8688 68.7671C82.111 68.2059 81.6222 68.0478 81.3616 68.005C81.1366 67.9681 80.9517 67.9934 80.7172 68.0944C80.4363 68.2154 80.0869 68.4465 79.6094 68.8601C79.2902 69.1367 79.0379 69.3787 78.7455 69.6591C78.5379 69.8582 78.3101 70.0767 78.0238 70.3407C76.9709 71.3115 75.0339 73.0177 72.3326 72.7029Z" fill="white"/>
<path fill-rule="evenodd" clip-rule="evenodd" d="M34.7303 81.4283C36.7855 80.4581 38.4049 78.543 39.7721 75.62L34.874 73.3289C33.7857 75.6557 32.8912 76.3168 32.4219 76.5383C31.9197 76.7754 31.3522 76.7965 30.1066 76.6528C30.0112 76.6418 29.9078 76.629 29.7972 76.6152C28.7223 76.4815 26.9727 76.2639 25.2556 76.8491C23.144 77.5689 21.5425 79.2562 20.2755 81.8858C19.6274 83.231 20.1925 84.8469 21.5377 85.495C22.883 86.1432 24.4989 85.5781 25.147 84.2329C26.0421 82.3751 26.7342 82.0581 27.0002 81.9674C27.4843 81.8024 28.0129 81.8547 29.4873 82.0247C30.7403 82.1691 32.708 82.3829 34.7303 81.4283Z" fill="white"/>
<path fill-rule="evenodd" clip-rule="evenodd" d="M24.2563 69.3007C26.4921 69.7086 28.9237 69.0945 31.7373 67.5142L29.0892 62.7996C26.8495 64.0575 25.7374 64.0742 25.2269 63.9811C24.6805 63.8814 24.2069 63.5681 23.2779 62.726C23.2066 62.6615 23.1301 62.5908 23.0482 62.5153C22.2522 61.7807 20.9564 60.585 19.2197 60.061C17.0838 59.4167 14.7994 59.8559 12.2382 61.256C10.928 61.9723 10.4466 63.6151 11.1628 64.9253C11.8791 66.2355 13.5219 66.717 14.8321 66.0007C16.6415 65.0116 17.3887 65.1568 17.6579 65.238C18.1475 65.3857 18.5468 65.736 19.6465 66.7327C20.581 67.5797 22.0563 68.8993 24.2563 69.3007Z" fill="white"/>
<path fill-rule="evenodd" clip-rule="evenodd" d="M75.6987 37.2991L64.2289 48.7689L61.17 45.71L72.6398 34.2402L75.6987 37.2991Z" fill="white"/>
<path fill-rule="evenodd" clip-rule="evenodd" d="M16.9019 43.5181L32.0676 49.153L30.5609 53.2081L15.3952 47.5732L16.9019 43.5181Z" fill="white"/>
<path fill-rule="evenodd" clip-rule="evenodd" d="M29.0452 100.909L30.6451 100.183L39.2178 77.2693L43.2695 78.7851L34.4105 102.465H32.7309L29.0452 100.909Z" fill="white"/>
<path fill-rule="evenodd" clip-rule="evenodd" d="M27.3973 29.1906L16.688 40.2196L13.5845 37.206L24.2938 26.177L27.3973 29.1906Z" fill="white"/>
<path fill-rule="evenodd" clip-rule="evenodd" d="M49.3335 75.3133C57.7978 75.3133 64.6594 68.4516 64.6594 59.9874C64.6594 51.5231 57.7978 44.6614 49.3335 44.6614C40.8692 44.6614 34.0075 51.5231 34.0075 59.9874C34.0075 68.4516 40.8692 75.3133 49.3335 75.3133ZM70.0669 59.9874C70.0669 71.4381 60.7842 80.7207 49.3335 80.7207C37.8828 80.7207 28.6001 71.4381 28.6001 59.9874C28.6001 48.5366 37.8828 39.254 49.3335 39.254C60.7842 39.254 70.0669 48.5366 70.0669 59.9874Z" fill="white"/>
<path d="M81.3083 29.7784C81.3083 29.7784 81.7902 29.0966 81.7902 28.2555C81.7902 27.4144 81.3083 26.7325 81.3083 26.7325C81.3083 26.7325 80.8264 27.4144 80.8264 28.2555C80.8264 29.0966 81.3083 29.7784 81.3083 29.7784Z" fill="white"/>
<path fill-rule="evenodd" clip-rule="evenodd" d="M81.3083 26.7325L83.5163 25.1721L81.3083 22.048L79.1004 25.1721L81.3083 26.7325ZM81.3083 29.7784L83.5163 31.3389L81.3083 34.463L79.1004 31.3389L81.3083 29.7784ZM83.5172 28.2918C83.517 28.2919 83.5169 28.2921 83.4647 28.2555C83.5169 28.2189 83.517 28.219 83.5172 28.2192L83.5197 28.2229L83.5231 28.2276L83.5292 28.2365L83.5298 28.2373C83.53 28.2428 83.5301 28.2489 83.5301 28.2555C83.5301 28.2621 83.53 28.2682 83.5298 28.2736L83.5292 28.2745L83.5231 28.2834L83.5197 28.2881L83.5172 28.2918ZM78.59 26.0956C78.3797 26.5769 78.1227 27.338 78.1227 28.2555C78.1227 29.1729 78.3797 29.9341 78.59 30.4153C78.7 30.6668 78.8112 30.8737 78.9006 31.0261C78.9457 31.1031 78.9864 31.1682 79.0202 31.2202C79.0372 31.2463 79.0525 31.2694 79.066 31.2891C79.0727 31.299 79.0789 31.3081 79.0847 31.3164L79.0929 31.3283L79.0968 31.3338L79.0995 31.3377C79.1 31.3383 79.1004 31.3389 81.3083 29.7784C83.5163 31.3389 83.5167 31.3383 83.5172 31.3377L83.5199 31.3338L83.5238 31.3283L83.532 31.3164C83.5377 31.3081 83.544 31.299 83.5507 31.2891C83.5641 31.2694 83.5795 31.2463 83.5964 31.2202C83.6303 31.1682 83.671 31.1031 83.7161 31.0261C83.8055 30.8737 83.9167 30.6668 84.0266 30.4153C84.237 29.9341 84.494 29.1729 84.494 28.2555C84.494 27.338 84.237 26.5769 84.0266 26.0956C83.9167 25.8442 83.8055 25.6373 83.7161 25.4848C83.671 25.4079 83.6303 25.3428 83.5964 25.2907C83.5795 25.2646 83.5641 25.2416 83.5507 25.2218C83.544 25.2119 83.5377 25.2028 83.532 25.1945L83.5238 25.1827L83.5199 25.1772L83.5172 25.1733C83.5167 25.1727 83.5163 25.172 81.3083 26.7325C79.1004 25.172 79.1 25.1727 79.0995 25.1733L79.0968 25.1772L79.0929 25.1827L79.0847 25.1945C79.0789 25.2028 79.0727 25.2119 79.066 25.2218C79.0525 25.2416 79.0372 25.2646 79.0202 25.2907C78.9864 25.3428 78.9457 25.4079 78.9006 25.4848C78.8112 25.6373 78.7 25.8442 78.59 26.0956ZM79.0869 28.2736C79.0867 28.2682 79.0865 28.2621 79.0865 28.2555C79.0865 28.2489 79.0867 28.2428 79.0869 28.2373L79.0874 28.2365L79.0936 28.2276L79.0969 28.2229L79.0995 28.2192C79.0997 28.219 79.0998 28.2189 79.1519 28.2555C79.0998 28.2921 79.0997 28.2919 79.0995 28.2918L79.0969 28.2881L79.0936 28.2834L79.0874 28.2745L79.0869 28.2736ZM79.0517 28.2906C79.0516 28.2906 79.0517 28.2906 79.0517 28.2906ZM79.0517 28.2906C79.0516 28.2906 79.0517 28.2906 79.0517 28.2906Z" fill="white"/>
<path fill-rule="evenodd" clip-rule="evenodd" d="M81.3083 19.8696C85.9397 19.8696 89.6942 23.6241 89.6942 28.2555C89.6942 32.8869 85.9397 36.6413 81.3083 36.6413C76.6769 36.6413 72.9224 32.8869 72.9224 28.2555C72.9224 23.6241 76.6769 19.8696 81.3083 19.8696ZM95.1016 28.2555C95.1016 20.6377 88.9261 14.4622 81.3083 14.4622C73.6905 14.4622 67.515 20.6377 67.515 28.2555C67.515 35.8733 73.6905 42.0488 81.3083 42.0488C88.9261 42.0488 95.1016 35.8733 95.1016 28.2555Z" fill="white"/>
<path fill-rule="evenodd" clip-rule="evenodd" d="M91.0353 0.437866L96.8214 8.95633C97.7395 10.3079 98.6961 12.5424 98.6733 15.0849C98.6491 17.7786 97.515 20.6511 94.5114 22.8891L92.637 24.2857L90.9842 22.6329C90.5514 22.2001 90.1002 21.7184 89.7663 21.3554C89.5972 21.1716 89.4538 21.0135 89.3522 20.9008C89.3013 20.8444 89.2608 20.7991 89.2325 20.7675L89.1995 20.7306L89.1869 20.7165C89.1868 20.7164 89.1864 20.7159 91.2072 18.9197L89.1869 20.7165L87.2876 18.5797L89.5258 16.8023C90.5049 16.0248 91.1407 14.9037 91.5136 13.6755C91.8909 12.4332 91.9383 11.2737 91.8905 10.7L91.0353 0.437866Z" fill="white"/>
<path fill-rule="evenodd" clip-rule="evenodd" d="M71.5813 0.437866L65.7952 8.95633C64.8771 10.3079 63.9205 12.5424 63.9433 15.0849C63.9675 17.7786 65.1015 20.6511 68.1052 22.8891L69.9796 24.2857L71.6324 22.6329C72.0652 22.2001 72.5164 21.7184 72.8503 21.3554C73.0194 21.1716 73.1628 21.0135 73.2644 20.9008C73.3153 20.8444 73.3558 20.7991 73.3841 20.7675L73.4171 20.7306L73.4297 20.7165C73.4298 20.7164 73.4302 20.7159 71.4094 18.9197L73.4297 20.7165L75.329 18.5797L73.0908 16.8023C72.1117 16.0248 71.4759 14.9037 71.1029 13.6755C70.7257 12.4332 70.6783 11.2737 70.7261 10.7L71.5813 0.437866Z" fill="white"/>
<path fill-rule="evenodd" clip-rule="evenodd" d="M9.42764 38.4733C11.6463 38.4733 13.4448 40.2719 13.4448 42.4905C13.4448 44.7091 11.6463 46.5077 9.42764 46.5077C7.20902 46.5077 5.41048 44.7091 5.41048 42.4905C5.41048 40.2719 7.20902 38.4733 9.42764 38.4733ZM18.8522 42.4905C18.8522 37.2855 14.6327 33.0659 9.42764 33.0659C4.22259 33.0659 0.00305176 37.2855 0.00305176 42.4905C0.00305176 47.6956 4.22259 51.9151 9.42764 51.9151C14.6327 51.9151 18.8522 47.6956 18.8522 42.4905Z" fill="white"/>
<path fill-rule="evenodd" clip-rule="evenodd" d="M23.0733 25.66C23.0733 30.0223 26.6097 33.5587 30.972 33.5587C35.3344 33.5587 38.8707 30.0223 38.8707 25.66C38.8707 21.2976 35.3344 17.7613 30.972 17.7613C26.6097 17.7613 23.0733 21.2976 23.0733 25.66ZM30.972 29.3807C33.0269 29.3807 34.6927 27.7149 34.6927 25.66C34.6927 23.6051 33.0269 21.9392 30.972 21.9392C28.9171 21.9392 27.2512 23.6051 27.2512 25.66C27.2512 27.7149 28.9171 29.3807 30.972 29.3807Z" fill="white"/>
<path fill-rule="evenodd" clip-rule="evenodd" d="M22.5431 106.324C22.5431 110.687 26.0795 114.223 30.4419 114.223C34.8042 114.223 38.3406 110.687 38.3406 106.324C38.3406 101.962 34.8042 98.4256 30.4419 98.4256C26.0795 98.4256 22.5431 101.962 22.5431 106.324ZM34.1626 106.324C34.1626 108.379 32.4968 110.045 30.4418 110.045C28.3869 110.045 26.7211 108.379 26.7211 106.324C26.7211 104.269 28.3869 102.604 30.4418 102.604C32.4968 102.604 34.1626 104.269 34.1626 106.324Z" fill="white"/>
<path fill-rule="evenodd" clip-rule="evenodd" d="M94.957 94.9641C90.5947 94.9641 87.0583 91.4277 87.0583 87.0654C87.0583 82.7031 90.5947 79.1667 94.957 79.1667C99.3194 79.1667 102.856 82.7031 102.856 87.0654C102.856 91.4277 99.3194 94.9641 94.957 94.9641ZM98.6736 87.0654C98.6736 89.1203 97.0078 90.7862 94.9529 90.7862C92.8979 90.7862 91.2321 89.1203 91.2321 87.0654C91.2321 85.0105 92.8979 83.3446 94.9529 83.3446C97.0078 83.3446 98.6736 85.0105 98.6736 87.0654Z" fill="white"/>
<path fill-rule="evenodd" clip-rule="evenodd" d="M91.371 90.5098L89.2573 91.2062L33.9978 109.417L35.7716 105.584L35.7716 104.277L89.2573 86.6515L90.0171 86.4012L91.371 90.5098Z" fill="white"/>
</svg>
