<svg width="104" height="115" viewBox="0 0 104 115" fill="none" xmlns="http://www.w3.org/2000/svg">
<path fill-rule="evenodd" clip-rule="evenodd" d="M89.076 37.4095L96.4214 81.9141L92.1532 82.6186L84.8078 38.1139L89.076 37.4095Z" fill="white"/>
<path fill-rule="evenodd" clip-rule="evenodd" d="M35.8531 27.3783L36.8854 28.2098L43.4198 41.3706L39.5452 43.2944L33.8211 31.7655L32.7966 30.3449L35.8531 27.3783Z" fill="white"/>
<path d="M41.1047 60.217C41.1047 60.217 44.973 57.483 49.7448 57.483C54.5165 57.483 58.3848 60.217 58.3848 60.217C58.3848 60.217 54.5165 62.9509 49.7448 62.9509C44.973 62.9509 41.1047 60.217 41.1047 60.217Z" fill="white"/>
<path fill-rule="evenodd" clip-rule="evenodd" d="M58.3848 60.217L59.9452 58.009L63.0693 60.217L59.9452 62.4249L58.3848 60.217ZM41.1047 60.217L39.5442 58.009L36.4202 60.217L39.5442 62.4249L41.1047 60.217ZM50.5235 60.217C50.2666 60.1973 50.0067 60.1867 49.7447 60.1867C49.4827 60.1867 49.2228 60.1973 48.9659 60.217C49.2228 60.2367 49.4827 60.2472 49.7447 60.2472C50.0067 60.2472 50.2666 60.2367 50.5235 60.217ZM42.6559 58.0025C42.6558 58.0025 42.6558 58.0025 42.6559 58.0025V58.0025ZM56.9371 64.0613C55.1679 64.8347 52.6275 65.6546 49.7447 65.6546C46.8619 65.6546 44.3215 64.8347 42.5523 64.0613C41.6569 63.6699 40.9288 63.2771 40.4163 62.9766C40.1593 62.8259 39.9543 62.6973 39.8075 62.6018C39.7339 62.5541 39.6748 62.5146 39.6307 62.4847C39.6087 62.4697 39.5904 62.4571 39.5759 62.4471L39.5571 62.434L39.5499 62.429L39.5455 62.4258C39.5448 62.4254 39.5442 62.4249 41.1047 60.217C39.5442 58.009 39.5448 58.0086 39.5455 58.0081L39.5499 58.005L39.5571 57.9999L39.5759 57.9869C39.5904 57.9768 39.6087 57.9643 39.6307 57.9493C39.6748 57.9194 39.7339 57.8798 39.8075 57.8321C39.9543 57.7367 40.1593 57.608 40.4163 57.4573C40.9288 57.1568 41.6569 56.7641 42.5523 56.3726C44.3215 55.5993 46.8619 54.7793 49.7447 54.7793C52.6275 54.7793 55.1679 55.5993 56.9371 56.3726C57.8325 56.7641 58.5606 57.1568 59.0732 57.4573C59.3302 57.608 59.5351 57.7367 59.682 57.8321C59.7555 57.8798 59.8146 57.9194 59.8587 57.9493C59.8808 57.9643 59.8991 57.9768 59.9135 57.9869L59.9323 57.9999L59.9395 58.005L59.9439 58.0081C59.9446 58.0086 59.9452 58.009 58.3848 60.217C59.9452 62.4249 59.9446 62.4254 59.9439 62.4258L59.9395 62.429L59.9323 62.434L59.9135 62.4471C59.8991 62.4571 59.8808 62.4697 59.8587 62.4847C59.8146 62.5146 59.7555 62.5541 59.682 62.6018C59.5351 62.6973 59.3302 62.8259 59.0732 62.9766C58.5606 63.2771 57.8325 63.6699 56.9371 64.0613Z" fill="white"/>
<path fill-rule="evenodd" clip-rule="evenodd" d="M42.7433 82.9415C42.9229 80.3522 44.8301 78.0455 47.7237 75.7297L51.1025 79.9516C48.3632 82.1438 48.1475 83.1751 48.1377 83.3157C48.1377 83.3161 48.1377 83.3165 48.1376 83.317C48.135 83.3436 48.1076 83.6208 49.1686 84.6685C49.2951 84.7935 49.4617 84.9527 49.6474 85.1301C50.0247 85.4905 50.4807 85.9262 50.839 86.3026C51.4359 86.9298 52.1135 87.735 52.5996 88.7323C53.1079 89.7751 53.3893 90.9928 53.2294 92.3665C53.0735 93.7044 52.5206 95.0081 51.6588 96.2934C50.8273 97.5337 49.1478 97.865 47.9075 97.0335C46.6673 96.202 46.3359 94.5225 47.1674 93.2822C47.6926 92.4989 47.8277 92.0033 47.8582 91.741C47.8846 91.5144 47.8507 91.3309 47.7388 91.1014C47.6048 90.8265 47.3576 90.4883 46.9221 90.0306C46.6309 89.7247 46.3774 89.484 46.0836 89.2051C45.875 89.007 45.646 88.7896 45.369 88.516C44.35 87.5097 42.5551 85.6546 42.7433 82.9415Z" fill="white"/>
<path fill-rule="evenodd" clip-rule="evenodd" d="M56.8711 83.7669C55.1262 81.8454 54.7808 78.8723 55.1115 75.1809L60.4974 75.6634C60.1843 79.1578 60.7795 80.0273 60.8743 80.1316C60.8745 80.1319 60.8748 80.1322 60.8751 80.1326C60.8925 80.1529 61.0736 80.3644 62.5642 80.3236C62.7419 80.3187 62.9722 80.3086 63.2287 80.2973C63.75 80.2744 64.3801 80.2467 64.8997 80.2486C65.7656 80.2516 66.8158 80.3197 67.8721 80.6589C68.9766 81.0137 70.0504 81.6531 70.9313 82.7192C71.7894 83.7576 72.3478 85.0589 72.6793 86.5704C72.9993 88.029 72.0762 89.4707 70.6177 89.7906C69.1591 90.1105 67.7174 89.1875 67.3975 87.7289C67.1954 86.8078 66.9311 86.3673 66.7629 86.1637C66.6176 85.9879 66.4617 85.8854 66.2186 85.8074C65.9274 85.7138 65.5122 85.6582 64.8804 85.6559C64.4581 85.6544 64.1089 85.6709 63.7043 85.6899C63.4169 85.7035 63.1016 85.7183 62.7123 85.729C61.2807 85.7682 58.6994 85.7802 56.8711 83.7669Z" fill="white"/>
<path fill-rule="evenodd" clip-rule="evenodd" d="M72.5781 72.5265C70 72.226 67.785 70.213 65.6071 67.2142L69.9824 64.0366C72.044 66.8754 73.0642 67.1391 73.2041 67.1555C73.2045 67.1555 73.2049 67.1556 73.2054 67.1556C73.2319 67.1595 73.5074 67.1998 74.6037 66.189C74.7344 66.0684 74.9012 65.9095 75.0871 65.7323C75.4648 65.3722 75.9213 64.9371 76.3141 64.5969C76.9685 64.0299 77.8045 63.3907 78.8235 62.9517C79.8889 62.4928 81.1184 62.2686 82.4831 62.4927C83.8123 62.7109 85.0887 63.3242 86.3323 64.2451C87.5323 65.1337 87.7848 66.8269 86.8961 68.0269C86.0075 69.227 84.3143 69.4794 83.1143 68.5908C82.3564 68.0296 81.8677 67.8714 81.6071 67.8287C81.382 67.7917 81.1971 67.817 80.9627 67.918C80.6818 68.039 80.3323 68.2701 79.8549 68.6838C79.5357 68.9603 79.2833 69.2023 78.991 69.4827C78.7834 69.6819 78.5555 69.9004 78.2693 70.1644C77.2164 71.1352 75.2794 72.8414 72.5781 72.5265Z" fill="white"/>
<path fill-rule="evenodd" clip-rule="evenodd" d="M34.9758 81.252C37.031 80.2818 38.6504 78.3667 40.0176 75.4437L35.1195 73.1526C34.0312 75.4794 33.1367 76.1405 32.6674 76.362C32.1652 76.5991 31.5977 76.6201 30.3521 76.4765C30.2566 76.4655 30.1533 76.4527 30.0427 76.4389C28.9678 76.3052 27.2182 76.0876 25.5011 76.6728C23.3895 77.3926 21.788 79.0799 20.521 81.7094C19.8729 83.0547 20.438 84.6706 21.7832 85.3187C23.1285 85.9669 24.7444 85.4018 25.3925 84.0565C26.2876 82.1988 26.9797 81.8818 27.2457 81.7911C27.7298 81.6261 28.2584 81.6784 29.7328 81.8484C30.9858 81.9928 32.9535 82.2066 34.9758 81.252Z" fill="white"/>
<path fill-rule="evenodd" clip-rule="evenodd" d="M24.5018 69.1243C26.7376 69.5323 29.1692 68.9182 31.9827 67.3379L29.3346 62.6232C27.0949 63.8812 25.9828 63.8979 25.4723 63.8047C24.926 63.7051 24.4524 63.3917 23.5233 62.5497C23.4521 62.4852 23.3755 62.4145 23.2937 62.339C22.4976 61.6044 21.2019 60.4087 19.4652 59.8847C17.3293 59.2403 15.0448 59.6796 12.4837 61.0797C11.1735 61.796 10.692 63.4388 11.4083 64.749C12.1246 66.0592 13.7674 66.5407 15.0776 65.8244C16.887 64.8353 17.6342 64.9805 17.9033 65.0617C18.393 65.2094 18.7922 65.5597 19.8919 66.5564C20.8265 67.4034 22.3018 68.723 24.5018 69.1243Z" fill="white"/>
<path fill-rule="evenodd" clip-rule="evenodd" d="M75.9442 37.1227L64.4744 48.5925L61.4155 45.5336L72.8853 34.0638L75.9442 37.1227Z" fill="white"/>
<path fill-rule="evenodd" clip-rule="evenodd" d="M17.1474 43.3418L32.3131 48.9767L30.8064 53.0317L15.6407 47.3969L17.1474 43.3418Z" fill="white"/>
<path fill-rule="evenodd" clip-rule="evenodd" d="M29.2907 100.733L30.8906 100.007L39.4633 77.093L43.515 78.6088L34.6559 102.288H32.9764L29.2907 100.733Z" fill="white"/>
<path fill-rule="evenodd" clip-rule="evenodd" d="M27.6428 29.0143L16.9335 40.0433L13.83 37.0297L24.5393 26.0007L27.6428 29.0143Z" fill="white"/>
<path fill-rule="evenodd" clip-rule="evenodd" d="M49.5789 75.137C58.0432 75.137 64.9049 68.2753 64.9049 59.811C64.9049 51.3467 58.0432 44.4851 49.5789 44.4851C41.1147 44.4851 34.253 51.3467 34.253 59.811C34.253 68.2753 41.1147 75.137 49.5789 75.137ZM70.3123 59.811C70.3123 71.2618 61.0297 80.5444 49.5789 80.5444C38.1282 80.5444 28.8456 71.2618 28.8456 59.811C28.8456 48.3603 38.1282 39.0777 49.5789 39.0777C61.0297 39.0777 70.3123 48.3603 70.3123 59.811Z" fill="white"/>
<path d="M81.5539 29.6021C81.5539 29.6021 82.0358 28.9202 82.0358 28.0791C82.0358 27.238 81.5539 26.5562 81.5539 26.5562C81.5539 26.5562 81.072 27.238 81.072 28.0791C81.072 28.9202 81.5539 29.6021 81.5539 29.6021Z" fill="white"/>
<path fill-rule="evenodd" clip-rule="evenodd" d="M81.5538 26.5562L83.7618 24.9957L81.5538 21.8717L79.3459 24.9957L81.5538 26.5562ZM81.5538 29.6021L83.7618 31.1626L81.5538 34.2866L79.3459 31.1626L81.5538 29.6021ZM83.7627 28.1154C83.7625 28.1156 83.7624 28.1158 83.7102 28.0792C83.7624 28.0425 83.7625 28.0427 83.7627 28.0429L83.7652 28.0466L83.7686 28.0513L83.7747 28.0602L83.7753 28.061C83.7755 28.0665 83.7756 28.0725 83.7756 28.0792C83.7756 28.0858 83.7755 28.0918 83.7753 28.0973L83.7747 28.0982L83.7686 28.107L83.7652 28.1118L83.7627 28.1154ZM78.8355 25.9193C78.6252 26.4006 78.3682 27.1617 78.3682 28.0792C78.3682 28.9966 78.6252 29.7578 78.8355 30.239C78.9455 30.4905 79.0567 30.6974 79.1461 30.8498C79.1912 30.9267 79.2319 30.9918 79.2657 31.0439C79.2827 31.07 79.298 31.093 79.3115 31.1128C79.3182 31.1227 79.3244 31.1318 79.3302 31.1401L79.3384 31.152L79.3423 31.1574L79.345 31.1613C79.3455 31.162 79.3459 31.1626 81.5538 29.6021C83.7618 31.1626 83.7622 31.162 83.7627 31.1613L83.7654 31.1574L83.7693 31.152L83.7775 31.1401C83.7833 31.1318 83.7895 31.1227 83.7962 31.1128C83.8097 31.093 83.825 31.07 83.8419 31.0439C83.8758 30.9918 83.9165 30.9267 83.9616 30.8498C84.051 30.6974 84.1622 30.4905 84.2721 30.239C84.4825 29.7578 84.7395 28.9966 84.7395 28.0792C84.7395 27.1617 84.4825 26.4006 84.2721 25.9193C84.1622 25.6679 84.051 25.461 83.9616 25.3085C83.9165 25.2316 83.8758 25.1665 83.8419 25.1144C83.825 25.0883 83.8097 25.0653 83.7962 25.0455C83.7895 25.0356 83.7833 25.0265 83.7775 25.0182L83.7693 25.0064L83.7654 25.0009L83.7627 24.997C83.7622 24.9964 83.7618 24.9957 81.5538 26.5562C79.3459 24.9957 79.3455 24.9964 79.345 24.997L79.3423 25.0009L79.3384 25.0064L79.3302 25.0182C79.3244 25.0265 79.3182 25.0356 79.3115 25.0455C79.298 25.0653 79.2827 25.0883 79.2657 25.1144C79.2319 25.1665 79.1912 25.2316 79.1461 25.3085C79.0567 25.461 78.9455 25.6679 78.8355 25.9193ZM79.3324 28.0973C79.3322 28.0918 79.332 28.0858 79.332 28.0792C79.332 28.0725 79.3322 28.0665 79.3324 28.061L79.3329 28.0602L79.3391 28.0513L79.3424 28.0466L79.345 28.0429C79.3452 28.0427 79.3453 28.0425 79.3975 28.0792C79.3453 28.1158 79.3452 28.1156 79.345 28.1154L79.3424 28.1118L79.3391 28.107L79.3329 28.0982L79.3324 28.0973ZM79.2972 28.1143C79.2972 28.1143 79.2971 28.1143 79.2972 28.1143V28.1143ZM79.2967 28.1151C79.2967 28.1151 79.2966 28.1153 79.2967 28.1151V28.1151Z" fill="white"/>
<path fill-rule="evenodd" clip-rule="evenodd" d="M81.5538 19.6933C86.1852 19.6933 89.9397 23.4478 89.9397 28.0791C89.9397 32.7105 86.1852 36.465 81.5538 36.465C76.9224 36.465 73.168 32.7105 73.168 28.0791C73.168 23.4478 76.9224 19.6933 81.5538 19.6933ZM95.3471 28.0791C95.3471 20.4613 89.1716 14.2859 81.5538 14.2859C73.936 14.2859 67.7605 20.4613 67.7605 28.0791C67.7605 35.697 73.936 41.8724 81.5538 41.8724C89.1716 41.8724 95.3471 35.697 95.3471 28.0791Z" fill="white"/>
<path fill-rule="evenodd" clip-rule="evenodd" d="M91.2808 0.261536L97.0669 8.78C97.985 10.1316 98.9415 12.3661 98.9188 14.9086C98.8946 17.6023 97.7605 20.4748 94.7569 22.7128L92.8825 24.1094L91.2297 22.4566C90.7969 22.0238 90.3457 21.542 90.0118 21.179C89.8427 20.9953 89.6993 20.8372 89.5977 20.7245C89.5468 20.668 89.5063 20.6228 89.478 20.5912L89.445 20.5543L89.4324 20.5401L89.432 20.5397C89.4319 20.5396 89.4319 20.5396 91.4527 18.7433L89.432 20.5397L87.5331 18.4034L89.7713 16.626C90.7504 15.8485 91.3862 14.7274 91.7591 13.4992C92.1364 12.2569 92.1838 11.0974 92.136 10.5237L91.2808 0.261536Z" fill="white"/>
<path fill-rule="evenodd" clip-rule="evenodd" d="M71.8268 0.261536L66.0407 8.78C65.1227 10.1316 64.1661 12.3661 64.1888 14.9086C64.213 17.6023 65.3471 20.4748 68.3507 22.7128L70.2251 24.1094L71.8779 22.4566C72.3107 22.0238 72.7619 21.542 73.0958 21.179C73.2649 20.9953 73.4083 20.8372 73.5099 20.7245C73.5608 20.668 73.6014 20.6228 73.6296 20.5912L73.6626 20.5543L73.6752 20.5401L73.6756 20.5397C73.6757 20.5396 73.6757 20.5396 71.6549 18.7433L73.6756 20.5397L75.5745 18.4034L73.3363 16.626C72.3572 15.8485 71.7214 14.7274 71.3485 13.4992C70.9712 12.2569 70.9238 11.0974 70.9717 10.5237L71.8268 0.261536Z" fill="white"/>
<path fill-rule="evenodd" clip-rule="evenodd" d="M9.67313 38.297C11.8917 38.297 13.6903 40.0956 13.6903 42.3142C13.6903 44.5328 11.8917 46.3313 9.67313 46.3313C7.4545 46.3313 5.65596 44.5328 5.65596 42.3142C5.65596 40.0956 7.4545 38.297 9.67313 38.297ZM19.0977 42.3142C19.0977 37.1091 14.8782 32.8896 9.67313 32.8896C4.46807 32.8896 0.248533 37.1091 0.248533 42.3142C0.248533 47.5192 4.46807 51.7388 9.67313 51.7388C14.8782 51.7388 19.0977 47.5192 19.0977 42.3142Z" fill="white"/>
<path fill-rule="evenodd" clip-rule="evenodd" d="M23.3188 25.4836C23.3188 29.846 26.8552 33.3823 31.2175 33.3823C35.5798 33.3823 39.1162 29.846 39.1162 25.4836C39.1162 21.1213 35.5798 17.5849 31.2175 17.5849C26.8552 17.5849 23.3188 21.1213 23.3188 25.4836ZM22.7886 106.148C22.7886 110.51 26.325 114.047 30.6873 114.047C35.0497 114.047 38.586 110.51 38.586 106.148C38.586 101.786 35.0497 98.2493 30.6873 98.2493C26.325 98.2493 22.7886 101.786 22.7886 106.148ZM95.2025 94.7878C90.8402 94.7878 87.3038 91.2514 87.3038 86.8891C87.3038 82.5267 90.8402 78.9904 95.2025 78.9904C99.5648 78.9904 103.101 82.5267 103.101 86.8891C103.101 91.2514 99.5648 94.7878 95.2025 94.7878ZM31.2175 29.2044C33.2724 29.2044 34.9382 27.5386 34.9382 25.4836C34.9382 23.4287 33.2724 21.7629 31.2175 21.7629C29.1625 21.7629 27.4967 23.4287 27.4967 25.4836C27.4967 27.5386 29.1625 29.2044 31.2175 29.2044ZM98.9191 86.8891C98.9191 88.944 97.2533 90.6098 95.1983 90.6098C93.1434 90.6098 91.4776 88.944 91.4776 86.8891C91.4776 84.8341 93.1434 83.1683 95.1983 83.1683C97.2533 83.1683 98.9191 84.8341 98.9191 86.8891ZM34.4081 106.148C34.4081 108.203 32.7422 109.869 30.6873 109.869C28.6324 109.869 26.9666 108.203 26.9666 106.148C26.9666 104.093 28.6324 102.427 30.6873 102.427C32.7422 102.427 34.4081 104.093 34.4081 106.148Z" fill="white"/>
<path fill-rule="evenodd" clip-rule="evenodd" d="M91.6165 90.3335L89.5028 91.0299L34.2433 109.24L36.0171 105.408L36.0171 104.101L89.5028 86.4751L90.2626 86.2249L91.6165 90.3335Z" fill="white"/>
</svg>
